<svg xmlns="http://www.w3.org/2000/svg" width="17.653" height="21.68"><path id="apple_3_" data-name="apple (3)" d="M28.165 13.4a4.792 4.792 0 0 0 2.91 4.387 11.864 11.864 0 0 1-1.5 3.083c-.9 1.321-1.842 2.637-3.319 2.664-1.452.027-1.918-.861-3.578-.861s-2.178.833-3.552.888c-1.426.054-2.512-1.428-3.423-2.744-1.862-2.692-3.284-7.606-1.374-10.923a5.308 5.308 0 0 1 4.486-2.717c1.4-.027 2.722.942 3.578.942s2.462-1.165 4.15-.994a5.064 5.064 0 0 1 3.965 2.151 4.9 4.9 0 0 0-2.343 4.124m-2.728-8.055a4.776 4.776 0 0 0 1.128-3.462 4.859 4.859 0 0 0-3.195 1.643 4.538 4.538 0 0 0-1.15 3.354 4.021 4.021 0 0 0 3.216-1.535" transform="translate(-13.421 -1.883)" fill="#5a7a8d"/></svg>